<svg id="Layer_1" data-name="Layer 1" xmlns="http://www.w3.org/2000/svg" viewBox="0 0 36 26"><defs><style>.cls-1{fill:#5bcefa;}.cls-2{fill:#141414;}.cls-3{fill:#f5a9b8;}.cls-4{fill:#fcfcfc;}</style></defs><title>antrans</title><path class="cls-1" d="M7.34,25.7l-.14.1L1.38,30A4,4,0,0,1,0,27V25.7Z" transform="translate(0 -5)"/><path class="cls-2" d="M36,9V27a4,4,0,0,1-4,4H4a4,4,0,0,1-2.62-1L7.2,25.8l.14-.1,7.06-5.1.14-.1,7.06-5.1.14-.1,7.06-5.1.14-.1L34.62,6A4,4,0,0,1,36,9Z" transform="translate(0 -5)"/><polygon class="cls-3" points="14.54 15.5 14.4 15.6 7.34 20.7 0 20.7 0.03 15.6 0.03 15.5 14.54 15.5"/><polygon class="cls-4" points="21.74 10.3 21.6 10.4 14.54 15.5 0.03 15.5 0.03 15.6 0 15.6 0 10.3 21.74 10.3"/><polygon class="cls-3" points="28.94 5.1 28.8 5.2 21.74 10.3 0 10.3 0.03 5.2 0.03 5.1 28.94 5.1"/><path class="cls-1" d="M34.62,6l-5.68,4.1H0v.1H0V9A4,4,0,0,1,4,5H32A4,4,0,0,1,34.62,6Z" transform="translate(0 -5)"/></svg>